<svg xmlns="http://www.w3.org/2000/svg" version="1.1" xmlns:xlink="http://www.w3.org/1999/xlink" xmlns:svgjs="http://svgjs.dev/svgjs" viewBox="0 0 9.500038338570517 9.24163825858844"><g transform="matrix(1,0,0,1,4.741539034638773,6.946877793334771)"><g transform="matrix(1,0,0,1,0,0)"><path d=" M -2.6133605799330426 0.439017360095176 Q -2.619847984698703 0.47112520305303424 -2.60833313396489 0.5021519368898082 Q -2.596818283231077 0.5331786707265821 -2.5674153485878786 0.5602981735680388 Q -2.5130199194979608 0.6104692538247339 -2.449235898029814 0.6040002040219432 Q -2.385451876561667 0.5975311542191526 -2.3305348833077173 0.537990211566675 Q -2.268838014343403 0.4710985352533979 -2.2700794428758115 0.4053341158824423 Q -2.2713208714082205 0.33956969651148666 -2.3352722542571778 0.2805847778313182 Q -2.410984810963414 0.21075205801456695 -2.5063808831773198 0.24928242793440158 L -2.3615714300595663 0.38284597942857623 L -2.4571676775757014 0.4864913240458518 L -2.72620452956097 0.23834787304652227 L -2.5973868910640503 0.0986839334913282 Q -2.5425128996661712 0.0731135391246876 -2.476580743894828 0.06726539109788982 Q -2.410648588123485 0.06141724307109203 -2.3393069907424 0.08436558687004952 Q -2.267965393361315 0.10731393066900707 -2.2040140105123576 0.16629884934917555 Q -2.126096233707881 0.238165531879036 -2.0970361888545206 0.32686735707514275 Q -2.06797614400116 0.41556918227124956 -2.0905213662500697 0.5056481085178877 Q -2.113066588498979 0.5957270347645258 -2.1842552834578033 0.6729097382029225 Q -2.254765990845591 0.7493573682752394 -2.3427327426756177 0.7790954006996361 Q -2.4306994945056446 0.808833433124033 -2.5210888716402793 0.7873622780267215 Q -2.6114782487749135 0.7658911229294101 -2.6893960255793905 0.6940244403995497 Q -2.7871607832680265 0.6038520934517058 -2.8077209615706527 0.49782247934241936 Q -2.8282811398732792 0.39179286523313284 -2.768461060175916 0.2959619826064915 L -2.6133605799330426 0.439017360095176 M -2.6307217052751106 -0.23418367554208405 Q -2.6233667255230375 -0.13933034522181223 -2.6651031922096724 -0.05321085063135733 Q -2.7068396588963077 0.03290864395909758 -2.793369725488608 0.0906022101128035 Q -2.879899792080909 0.14829577626650942 -2.9754466041224426 0.15370934336222244 Q -3.0709934161639767 0.15912291045793556 -3.1553102339909325 0.11558356926475793 Q -3.2396270518178882 0.07204422807158034 -3.294546888829589 -0.010325739165321146 Q -3.3500214716696908 -0.09352772627330241 -3.3575150884431038 -0.18768767374383377 Q -3.3650087052165163 -0.28184762121436513 -3.322994865615681 -0.3675511058692802 Q -3.280981026014845 -0.4532545905241952 -3.1944509594225443 -0.510948156677901 Q -3.107920892830244 -0.568641722831607 -3.0126514537029108 -0.5744712998628599 Q -2.917382014575577 -0.5803008768941129 -2.8326491868130814 -0.5370389086151358 Q -2.7479163590505857 -0.49377694033615877 -2.6929965220388845 -0.41140697309925733 Q -2.6380766850271837 -0.32903700586235585 -2.6307217052751106 -0.23418367554208405 M -2.9509304929238422 -0.3818550414615799 Q -3.0158309101421974 -0.3908653602619019 -3.0840565395707418 -0.34537620233301836 Q -3.153946208741446 -0.29877755274733286 -3.1701677289533725 -0.23567951567791162 Q -3.186389249165299 -0.17258147860849032 -3.144783312035223 -0.11017998827750441 Q -3.1026226290767456 -0.046946478075438614 -3.038415594708131 -0.038074796296456104 Q -2.974208560339516 -0.02920311451747354 -2.904318891168812 -0.07580176410315906 Q -2.8352612418691874 -0.12184566786044357 -2.81876234874306 -0.18452769499432492 Q -2.8022634556169335 -0.2472097221282062 -2.8444241385754108 -0.310443232330272 Q -2.886030075705487 -0.3728447226612579 -2.9509304929238422 -0.3818550414615799 M -3.139284476099415 -0.9180006091459796 L -3.22281820431219 -1.120443480719355 L -3.084158703234536 -1.1776583630568724 L -2.9258641954340714 -0.7940337434086951 L -3.5775638504990472 -0.525123796422364 L -3.6523246300867362 -0.7063055444971658 L -3.139284476099415 -0.9180006091459796 M -3.856580132385834 -1.5793203818449855 Q -3.829796469368084 -1.67006802862082 -3.7604905132746627 -1.7302484610717155 Q -3.6911845571812414 -1.790428893522611 -3.590292286247154 -1.8111592979027142 Q -3.4903795519240766 -1.831688436220875 -3.402859017224836 -1.8032208053753145 Q -3.315338482525596 -1.7747531745297542 -3.253963850552396 -1.7021194733287675 Q -3.1925892185791955 -1.629485772127781 -3.1704499517654927 -1.5217367449166193 L -3.114296720483465 -1.2484460304446725 L -3.804870031245911 -1.1065534567750321 L -3.8610232625279384 -1.3798441712469787 Q -3.883363795403584 -1.488572735069151 -3.856580132385834 -1.5793203818449855 M -3.4100999336209465 -1.595002604610481 Q -3.4660001913736376 -1.6335403936386892 -3.550240339920546 -1.6162315123116124 Q -3.6354600250784648 -1.598721364922593 -3.6721259770662718 -1.541163933040795 Q -3.7087919290540787 -1.4836065011589965 -3.6914830477270018 -1.3993663526120883 L -3.6777969555148946 -1.33275786306337 L -3.3232047023290714 -1.4056161774866465 L -3.3368907945411785 -1.4722246670353645 Q -3.354199675868255 -1.556464815582273 -3.4100999336209465 -1.595002604610481 M -3.7911951593336153 -2.1647315683095387 L -3.676196699917358 -2.1653268261422567 L -3.677361334807458 -2.390323811956673 L -3.5283633308681335 -2.391095059061673 L -3.5271986959780333 -2.166098073247256 L -3.4002003973183403 -2.1667554449407795 L -3.401520316860454 -2.421752028863785 L -3.244522420092172 -2.4225646852093217 L -3.242187974156905 -1.9715707269768687 L -3.947178529708743 -1.967921537654555 L -3.949512975644011 -2.4189154958870076 L -3.792515078875729 -2.419728152232544 L -3.7911951593336153 -2.1647315683095387 M -3.1167928849686746 -3.1611108394897056 L -3.155141637872136 -2.9688990470555545 L -3.5925930191316207 -2.790032367558872 L -3.2062080894425615 -2.712943547946812 L -3.2445568423460225 -2.520731755512661 L -3.9359308916627405 -2.65866987182358 L -3.897582138759279 -2.8508816642577313 L -3.4552273954479027 -3.0287700592415705 L -3.8465156871888535 -3.1068371633664738 L -3.8081669342853925 -3.2990489558006253 L -3.1167928849686746 -3.1611108394897056 M -2.9327725655932566 -3.5937983250792627 L -3.22718300693862 -3.5709402405832185 L -3.2356779789134706 -3.5517351513840896 L -2.997900684067111 -3.44655930788594 L -3.0771870891657165 -3.2673118086940685 L -3.7219293694221918 -3.552500153564052 L -3.5969319246493905 -3.835089323208379 Q -3.5625475142749954 -3.912824208061997 -3.5117021105659245 -3.9548479504186886 Q -3.4608567068568536 -3.9968716927753802 -3.4016228376663458 -4.003474627026288 Q -3.342388968475838 -4.010077561277196 -3.2838591728213493 -3.9841881228776517 Q -3.21801315271005 -3.955062504678164 -3.1841500113602432 -3.896892171535547 Q -3.150286870010437 -3.8387218383929302 -3.1599964327965644 -3.7599136891283886 L -2.844182143569815 -3.7940799695844656 L -2.9327725655932566 -3.5937983250792627 M -3.358224738565056 -3.605941163033136 L -3.3189860584907462 -3.6946503845719705 Q -3.3028051594910313 -3.731231506856026 -3.3120907430760997 -3.757207995022918 Q -3.321376326661168 -3.7831844831898107 -3.354299336716818 -3.7977472922895545 Q -3.385393290658265 -3.8115010564393126 -3.4115192985090963 -3.8006414195310954 Q -3.4376453063599275 -3.789781782622878 -3.45342168288465 -3.7541151883959243 L -3.4926603629589597 -3.66540596685709 L -3.358224738565056 -3.605941163033136 M -2.742691935637659 -4.019557877506791 Q -2.829532274508394 -3.980699087705564 -2.924675631678032 -3.991006443646384 Q -3.0198189888476694 -4.001313799587204 -3.10327585418042 -4.063369835787006 Q -3.186732719513171 -4.125425871986808 -3.2239968890733777 -4.2135728042475975 Q -3.261261058633585 -4.301719736508386 -3.2486491817174596 -4.39577259696809 Q -3.236037304801334 -4.489825457427794 -3.1769647318803687 -4.5692699734657 Q -3.117295466303636 -4.649516959362576 -3.031154708690269 -4.6882728605622015 Q -2.9450139510769016 -4.727028761761827 -2.8501689402351476 -4.716320170891523 Q -2.7553239293933935 -4.705611580021218 -2.671867064060643 -4.643555543821416 Q -2.5884101987278925 -4.581499507621614 -2.5508476828398017 -4.493753810290309 Q -2.513285166951711 -4.406008112959005 -2.525495808938352 -4.311656906171417 Q -2.537706450924993 -4.2173056993838305 -2.5967790238459583 -4.137861183345923 Q -2.6558515967669236 -4.058416667308016 -2.742691935637659 -4.019557877506791 M -2.7114414815593126 -4.370789865115973 Q -2.724806374122903 -4.4349352441137135 -2.790608902558341 -4.483864041886634 Q -2.8580163707117165 -4.533986224971089 -2.9228922893975797 -4.528018379910664 Q -2.9877682080834433 -4.522050534850238 -3.0325201572659926 -4.4618652954275815 Q -3.0778687991043094 -4.400877586145956 -3.06460679514232 -4.337431788405585 Q -3.0513447911803304 -4.273985990665213 -2.983937323026955 -4.2238638075807575 Q -2.917332324732548 -4.174338317152069 -2.8527547523745684 -4.17990492728301 Q -2.788177180016589 -4.185471537413951 -2.742828538178272 -4.246459246695577 Q -2.6980765889957223 -4.306644486118233 -2.7114414815593126 -4.370789865115973 M -2.6516707238841395 -4.921261029270105 Q -2.6703210798940544 -5.01174121616593 -2.637889831776538 -5.09787172264035 Q -2.605458583659021 -5.18400222911477 -2.5254848472315614 -5.250486824938398 Q -2.4239797202274778 -5.334871119637618 -2.309702794419428 -5.338192900464451 Q -2.1954258686113786 -5.341514681291283 -2.0980801643635614 -5.26508946382678 L -2.26033457192312 -5.130202447299997 Q -2.3005161567795316 -5.148815352458165 -2.3397017018046866 -5.143548184235906 Q -2.378887246829841 -5.138281016013647 -2.412722289164536 -5.1101529177805745 Q -2.465012809136337 -5.066682220511279 -2.4651515920965883 -5.0034961402460025 Q -2.4652903750568402 -4.940310059980726 -2.4135091033095915 -4.878022822955493 Q -2.3610885566025 -4.81496660769538 -2.2989401025375185 -4.803561799177353 Q -2.2367916484725368 -4.792156990659325 -2.1845011285007363 -4.83562768792862 Q -2.1506660861660416 -4.863755786161693 -2.138330089454275 -4.901320040248888 Q -2.1259940927425083 -4.938884294336082 -2.1369545046735023 -4.9817896479682675 L -1.9747000971139443 -5.116676664495051 Q -1.9173412610798577 -5.007009149118734 -1.941480417550104 -4.895261437173903 Q -1.9656195740203504 -4.783513725229072 -2.0671247010244342 -4.699129430529852 Q -2.147098437451894 -4.632644834706224 -2.237703706915085 -4.616491347605832 Q -2.3283089763782763 -4.600337860505439 -2.413860438822701 -4.63520112589496 Q -2.499411901267126 -4.670064391284481 -2.5665357720505964 -4.75080710594682 Q -2.6330203678742246 -4.83078084237428 -2.6516707238841395 -4.921261029270105 M -1.3563381516448711 -5.154533367663248 L -1.6924507487357725 -5.331593589273889 L -1.5538641063024132 -5.055414765793434 L -1.7290454959534463 -4.967508675447355 L -2.0452383209227607 -5.597625408630917 L -1.870056931271728 -5.685531498976997 L -1.7337127911431156 -5.413821588497843 L -1.6743185418147064 -5.783753099924911 L -1.4723236741558623 -5.885114204099471 L -1.55042620997861 -5.463278935424534 L -1.144511675383163 -5.260827976908251 L -1.3563381516448711 -5.154533367663248 M -0.5689340220094401 -6.121713448701849 L -0.5366558351707802 -5.969089339680997 L -0.8125532630161644 -5.9107403096264965 L -0.7868962427085117 -5.789423710148385 L -0.5833974306807105 -5.832461292599931 L -0.5525676240207084 -5.686685701291554 L -0.7560664360485095 -5.643648118840008 L -0.6989588747185727 -5.373620849033887 L -0.8907173706678468 -5.333066204031468 L -1.0365899458040986 -6.022809773644929 L -0.5689340220094401 -6.121713448701849 M -0.18452072061197194 -5.489033761089337 Q -0.2675635632649629 -5.53545720650338 -0.3161396164095026 -5.617912449277256 Q -0.36471566955404233 -5.700367692051132 -0.3648115686017815 -5.804367647836568 Q -0.3649074676495207 -5.908367603622004 -0.3164835620326441 -5.990912290700021 Q -0.26805965641576757 -6.073456977778039 -0.18510210858889073 -6.119533493038543 Q -0.102144560762014 -6.165610008299047 -0.0031446028508777535 -6.165701296815644 Q 0.0968553546351184 -6.165793507438471 0.17939773644756524 -6.1198696007587445 Q 0.2619401182600121 -6.0739456940790175 0.31001617161712186 -5.9914899902520276 Q 0.3580922249742316 -5.909034286425037 0.3581881240219707 -5.805034330639601 Q 0.3582840230697099 -5.7010343748541645 0.3103601172402633 -5.618490148829261 Q 0.2624362114108167 -5.535945922804358 0.179479124637054 -5.489369407756424 Q 0.09652203786329144 -5.44279289270849 -0.0024779200478447505 -5.4427016041918925 Q -0.101477877958981 -5.442610315675295 -0.18452072061197194 -5.489033761089337 M 0.11580902303433233 -5.673810775572592 Q 0.15926382133555578 -5.72285086636166 0.15918820862483835 -5.804850831500177 Q 0.1591107517016644 -5.8888507957884135 0.11556604804318543 -5.9373106635481925 Q 0.07202134438470642 -5.985770531307971 -0.002978623729790686 -5.985701373340851 Q -0.07897859141914781 -5.985631293267504 -0.12193385098605547 -5.937091663318981 Q -0.16488911055296315 -5.888552033370457 -0.1648116536297892 -5.80455206908222 Q -0.1647351188128435 -5.721552104368843 -0.1216904149417945 -5.6730917755559505 Q -0.07864571107074547 -5.624631446743058 -0.0026457433813883435 -5.624701526816406 Q 0.07235422473310876 -5.624770684783525 0.11580902303433233 -5.673810775572592 M 0.7944181286264045 -6.075464868287531 L 0.7012345365646415 -5.677221452559829 Q 0.6882480701892858 -5.621720536431519 0.7069883126412893 -5.5854982599591585 Q 0.7257285550932928 -5.5492759834867975 0.7783083703727449 -5.536973015341724 Q 0.8308881856521969 -5.524670047196651 0.8648416748513591 -5.549076205665413 Q 0.8987951640505213 -5.573482364134176 0.9115537976824497 -5.628009579979534 L 1.0047373897442125 -6.026252995707235 L 1.1955826452029643 -5.9815977779954865 L 1.1023990531412016 -5.583354362267785 Q 1.080299277028754 -5.488905434821362 1.024771022502919 -5.431548107919613 Q 0.969242767977084 -5.374190781017864 0.892736668380669 -5.356660329667616 Q 0.8162305687842538 -5.339129878317368 0.7324923444503116 -5.358723494252115 Q 0.6487541201163696 -5.378317110186862 0.5908895806652961 -5.427288480130077 Q 0.5330250412142227 -5.4762598500732915 0.5110302068735951 -5.551243029936034 Q 0.4890353725329677 -5.626226209798776 0.5113629813888425 -5.721648837528152 L 0.6045465734506054 -6.119892253255854 L 0.7944181286264045 -6.075464868287531 M 1.7248030764368196 -4.972393068131445 L 1.5489370721826858 -5.058921378803069 L 1.4886877216433534 -5.527671862279713 L 1.3147481583544773 -5.174145302707628 L 1.1388821541003435 -5.260673613379252 L 1.4501191899345 -5.893252863374988 L 1.6259851941886339 -5.806724552703365 L 1.6840271898638943 -5.333487691567175 L 1.8601741080168426 -5.691500628798805 L 2.0360401122709764 -5.604972318127181 L 1.7248030764368196 -4.972393068131445 M 2.6045761273434618 -5.118824614041012 Q 2.640809210479338 -5.0314194443628475 2.6247575941349837 -4.941046076533969 Q 2.608705977790629 -4.850672708705091 2.543288069355693 -4.771114571120063 Q 2.478505286245369 -4.692328842637801 2.3925506461005766 -4.65943431668622 Q 2.3065960059557833 -4.626539790734641 2.213201643604915 -4.6444281411637505 Q 2.119807281254046 -4.662316491592859 2.034842279949646 -4.732180277300072 L 1.8193401402775773 -4.909380242866548 L 2.267103494128349 -5.453928660317475 L 2.482605633800418 -5.276728694750999 Q 2.5683430442075847 -5.206229783719175 2.6045761273434618 -5.118824614041012 M 2.267258943696144 -4.82589524095555 Q 2.3349578799884583 -4.8310773278796715 2.3895786579050062 -4.897504510717656 Q 2.4448345611461653 -4.964704102658409 2.437154968029593 -5.032514675945794 Q 2.42947537491302 -5.1003252492331805 2.3630481920750346 -5.1549460271497285 L 2.31052437308686 -5.198134549223278 L 2.08060900557767 -4.9185224540215255 L 2.133132824565844 -4.875333931947976 Q 2.1995600074038295 -4.820713154031428 2.267258943696144 -4.82589524095555 M 2.742610742158397 -4.148549289116662 L 2.590671038734304 -4.347079706240585 L 2.4762522119368375 -4.307364066068338 L 2.351053896315385 -4.470953129778451 L 3.0671036877248143 -4.695333824631 L 3.2044571796201944 -4.515862327550974 L 2.8001876596370034 -3.8840972167601353 L 2.6743815852018544 -4.048480402138743 L 2.742610742158397 -4.148549289116662 M 2.831948810561628 -4.278625072927407 L 2.966818881137722 -4.477547329255852 L 2.7401772296934763 -4.398537444870256 L 2.831948810561628 -4.278625072927407 M 3.6878981254662246 -3.645153401694896 L 3.547026280657446 -3.578137557746085 L 3.4662635969242634 -3.7479061912335876 L 2.970503066154908 -3.5120619711829644 L 2.886303672475633 -3.6890548018401477 L 3.382064203244988 -3.924899021890771 L 3.302160696998329 -4.092861606085854 L 3.4430325418071073 -4.1598774500346645 L 3.6878981254662246 -3.645153401694896 M 3.796921538786615 -3.2937880311503602 L 3.1241958852356455 -3.0829203118227664 L 3.0655716682310947 -3.2699475857177878 L 3.7382973217820643 -3.4808153050453816 L 3.796921538786615 -3.2937880311503602 M 3.2284016673567058 -2.8288624781212683 Q 3.2632846564302858 -2.9173747771157723 3.3384910582429335 -2.9765566757537387 Q 3.4136974600555816 -3.0357385743917056 3.5167475691654166 -3.049762661258633 Q 3.6197976782752512 -3.0637867481255605 3.708084238031091 -3.0268546026899315 Q 3.796370797786931 -2.989922457254302 3.8531429538350794 -2.9138835047520173 Q 3.9099151098832277 -2.837844552249732 3.92326496180463 -2.7397487753086396 Q 3.936749660715137 -2.6406621319337984 3.9022946813638786 -2.552712689650721 Q 3.8678397020126205 -2.4647632473676437 3.79256587670542 -2.406076781946551 Q 3.7172920513982195 -2.347390316525459 3.6142419422883845 -2.333366229658531 Q 3.51119183317855 -2.3193421427916037 3.4229726969172622 -2.355778855010359 Q 3.3347535606559746 -2.392215567229114 3.2774859713909525 -2.4681870962368464 Q 3.22021838212593 -2.5441586252445787 3.206868530204528 -2.6422544021856713 Q 3.1935186782831257 -2.740350179126764 3.2284016673567058 -2.8288624781212683 M 3.451738044609362 -2.5559863842697563 Q 3.506156343889105 -2.519491196867849 3.587407391456475 -2.530548649974465 Q 3.6706401718913417 -2.5418757970592916 3.7128313499020686 -2.5915185658989435 Q 3.755022527912796 -2.6411613347385954 3.7449090037299158 -2.7154763172697263 Q 3.73466063255793 -2.7907821662346057 3.6808051899896137 -2.826849343914191 Q 3.626949747421298 -2.862916521593777 3.5437169669864312 -2.8515893745089507 Q 3.461475052985313 -2.8403970744132296 3.419216451480033 -2.791249738790452 Q 3.3769578499747532 -2.742102403167674 3.387206221146739 -2.6667965542027945 Q 3.3973197453296193 -2.592481571671664 3.451738044609362 -2.5559863842697563 M 3.1921456323673514 -1.5458987824580404 L 3.212432671009936 -1.740846047283978 L 3.6313313415565376 -1.9596631028676084 L 3.239447554100316 -2.0004441907511707 L 3.2597345927429 -2.1953914555771084 L 3.960947968774972 -2.122420219643323 L 3.9406609301323874 -1.9274729548173852 L 3.51678911507492 -1.7091734257297393 L 3.9136460470420076 -1.6678748113501927 L 3.893359008399423 -1.472927546524255 L 3.1921456323673514 -1.5458987824580404 M 3.0500354994938954 -0.7951860138767554 L 3.1465340651067684 -1.025811309182058 L 3.055114211239486 -1.1052556942503855 L 3.1346290293044934 -1.295290937581955 L 3.685791836615413 -0.7860821789798016 L 3.5985571333013757 -0.577596912023808 L 2.8493792693528404 -0.6135625646594806 L 2.9292800816802993 -0.804520309172271 L 3.0500354994938954 -0.7951860138767554 M 3.2073243955372 -0.7824894323888708 L 3.4469902288019494 -0.7645928303227424 L 3.2656095291673752 -0.9217871107532735 L 3.2073243955372 -0.7824894323888708 M 3.069463560774751 0.21125125946280154 Q 2.9844919400256855 0.2528724519886887 2.893292502676216 0.24249639169876136 Q 2.802093065326747 0.23212033140883404 2.7186045995325845 0.17179889177633645 Q 2.635926701367492 0.11206309718881458 2.597728140588324 0.028330666468094456 Q 2.5595295798091557 -0.05540176425262566 2.5715501139419636 -0.14973101082632628 Q 2.583570648074771 -0.2440602574000269 2.6479916030220987 -0.3332226965976756 L 2.81138657057032 -0.5593710651080754 L 3.3828367490643414 -0.14649130840020386 L 3.21944178151612 0.07965706011019602 Q 3.1544351815238167 0.1696300669369143 3.069463560774751 0.21125125946280154 M 2.7560390760203113 -0.1071126712146766 Q 2.76543914738277 -0.03986954027641132 2.8351479634827497 0.010495933591499251 Q 2.905667347211799 0.061447052504385535 2.9728659167964118 0.049547378316324275 Q 3.040064486381024 0.037647704128263126 3.0904299602489345 -0.03206111197171668 L 3.1302538233072825 -0.087179710748445 L 2.8368283415841113 -0.29918321702965 L 2.7970044785257633 -0.24406461825292175 Q 2.746639004657853 -0.17435580215294189 2.7560390760203113 -0.1071126712146766 M 2.1019707264661784 0.2650752461360973 L 2.3797033950519078 0.3653975507360687 L 2.3953489664826173 0.3513898351976035 L 2.221920107434953 0.15768276034119735 L 2.367945440788244 0.026944081982188776 L 2.8382044624367184 0.552188265727444 L 2.6079910542419897 0.7583017943648606 Q 2.5446637413081645 0.8149996905919816 2.481029630698803 0.8323763981902439 Q 2.417395520089441 0.8497531057885064 2.3606924489869527 0.8313952266205257 Q 2.3039893778844647 0.813037347452545 2.2612991971958087 0.7653556059494295 Q 2.213272743921071 0.7117136467584249 2.2063479617623414 0.6447618178658984 Q 2.199423179603612 0.5778099889733719 2.240703463953576 0.509979773552911 L 1.9388097672602054 0.41115570818009156 L 2.1019707264661784 0.2650752461360973 M 2.4847315322994907 0.45122348146975133 L 2.4124638928338316 0.5159257865759954 Q 2.3826628043943843 0.5426071495064053 2.3804359075666053 0.5701033479803476 Q 2.3782090107388267 0.5975995464542899 2.4022222373761952 0.6244205260497924 Q 2.424901395867044 0.6497514512233223 2.4531816181208352 0.6506052833357178 Q 2.4814618403746267 0.6514591154481131 2.510517901603088 0.6254447865909635 L 2.582785541068747 0.5607424814847194 L 2.4847315322994907 0.45122348146975133" fill="#390c14" fill-rule="nonzero"></path></g><g transform="matrix(1,0,0,1,0,0)"><path d=" M -3.4489945068359376 1.4459463447758256 L -3.5814945068359374 1.4459463447758256 L -3.6034945068359376 1.5104463447758256 L -3.6934945068359375 1.5104463447758256 L -3.5639945068359373 1.1594463447758256 L -3.4654945068359373 1.1594463447758256 L -3.3359945068359376 1.5104463447758256 L -3.4269945068359373 1.5104463447758256 L -3.4489945068359376 1.4459463447758256 M -3.4709945068359374 1.3809463447758257 L -3.5149945068359374 1.2509463447758256 L -3.5594945068359376 1.3809463447758257 L -3.4709945068359374 1.3809463447758257 M -3.1215042724609376 1.5104463447758256 L -3.1980042724609374 1.3769463447758257 L -3.2175042724609373 1.3769463447758257 L -3.2175042724609373 1.5104463447758256 L -3.3030042724609374 1.5104463447758256 L -3.3030042724609374 1.1569463447758257 L -3.1570042724609375 1.1569463447758257 Q -3.1150042724609377 1.1569463447758257 -3.0860042724609373 1.1714463447758257 Q -3.0570042724609374 1.1859463447758256 -3.0425042724609375 1.2111963447758256 Q -3.0280042724609375 1.2364463447758256 -3.0280042724609375 1.2689463447758256 Q -3.0280042724609375 1.3074463447758256 -3.0492542724609377 1.3344463447758257 Q -3.0705042724609375 1.3614463447758256 -3.1110042724609377 1.3714463447758256 L -3.0270042724609376 1.5104463447758256 L -3.1215042724609376 1.5104463447758256 M -3.2175042724609373 1.3184463447758257 L -3.1645042724609374 1.3184463447758257 Q -3.1390042724609373 1.3184463447758257 -3.1270042724609377 1.3071963447758257 Q -3.1150042724609377 1.2959463447758257 -3.1150042724609377 1.2739463447758257 Q -3.1150042724609377 1.2529463447758256 -3.1272542724609376 1.2409463447758255 Q -3.1395042724609374 1.2289463447758255 -3.1645042724609374 1.2289463447758255 L -3.2175042724609373 1.2289463447758255 L -3.2175042724609373 1.3184463447758257 M -2.7222611083984374 1.3594463447758256 Q -2.7035111083984376 1.3829463447758257 -2.7035111083984376 1.4139463447758256 Q -2.7035111083984376 1.4594463447758257 -2.7337611083984377 1.4849463447758255 Q -2.7640111083984373 1.5104463447758256 -2.8205111083984375 1.5104463447758256 L -2.9850111083984374 1.5104463447758256 L -2.9850111083984374 1.1569463447758257 L -2.8245111083984376 1.1569463447758257 Q -2.7705111083984377 1.1569463447758257 -2.7410111083984376 1.1804463447758256 Q -2.7115111083984376 1.2039463447758256 -2.7115111083984376 1.2474463447758257 Q -2.7115111083984376 1.2794463447758255 -2.7285111083984375 1.3006963447758255 Q -2.7455111083984374 1.3219463447758257 -2.7730111083984377 1.3284463447758257 Q -2.7410111083984376 1.3359463447758255 -2.7222611083984374 1.3594463447758256 M -2.8995111083984373 1.3014463447758255 L -2.8435111083984377 1.3014463447758255 Q -2.7990111083984375 1.3014463447758255 -2.7990111083984375 1.2634463447758257 Q -2.7990111083984375 1.2254463447758255 -2.8445111083984376 1.2254463447758255 L -2.8995111083984373 1.2254463447758255 L -2.8995111083984373 1.3014463447758255 M -2.7910111083984375 1.4019463447758256 Q -2.7910111083984375 1.3829463447758257 -2.8035111083984376 1.3721963447758256 Q -2.8160111083984374 1.3614463447758256 -2.8390111083984375 1.3614463447758256 L -2.8995111083984373 1.3614463447758256 L -2.8995111083984373 1.4409463447758255 L -2.8385111083984373 1.4409463447758255 Q -2.7910111083984375 1.4409463447758255 -2.7910111083984375 1.4019463447758256 M -2.5730035400390623 1.1569463447758257 L -2.5730035400390623 1.5104463447758256 L -2.6585035400390624 1.5104463447758256 L -2.6585035400390624 1.1569463447758257 L -2.5730035400390623 1.1569463447758257 M -2.2600028076171874 1.1569463447758257 L -2.2600028076171874 1.2249463447758255 L -2.3560028076171875 1.2249463447758255 L -2.3560028076171875 1.5104463447758256 L -2.4420028076171874 1.5104463447758256 L -2.4420028076171874 1.2249463447758255 L -2.5370028076171875 1.2249463447758255 L -2.5370028076171875 1.1569463447758257 L -2.2600028076171874 1.1569463447758257 M -2.0424942626953126 1.5104463447758256 L -2.1189942626953124 1.3769463447758257 L -2.1384942626953123 1.3769463447758257 L -2.1384942626953123 1.5104463447758256 L -2.2239942626953124 1.5104463447758256 L -2.2239942626953124 1.1569463447758257 L -2.0779942626953125 1.1569463447758257 Q -2.0359942626953127 1.1569463447758257 -2.0069942626953123 1.1714463447758257 Q -1.9779942626953124 1.1859463447758256 -1.9634942626953125 1.2111963447758256 Q -1.9489942626953125 1.2364463447758256 -1.9489942626953125 1.2689463447758256 Q -1.9489942626953125 1.3074463447758256 -1.9702442626953125 1.3344463447758257 Q -1.9914942626953125 1.3614463447758256 -2.0319942626953127 1.3714463447758256 L -1.9479942626953126 1.5104463447758256 L -2.0424942626953126 1.5104463447758256 M -2.1384942626953123 1.3184463447758257 L -2.0854942626953124 1.3184463447758257 Q -2.0599942626953123 1.3184463447758257 -2.0479942626953127 1.3071963447758257 Q -2.0359942626953127 1.2959463447758257 -2.0359942626953127 1.2739463447758257 Q -2.0359942626953127 1.2529463447758256 -2.0482442626953126 1.2409463447758255 Q -2.0604942626953124 1.2289463447758255 -2.0854942626953124 1.2289463447758255 L -2.1384942626953123 1.2289463447758255 L -2.1384942626953123 1.3184463447758257 M -1.6870010986328126 1.4459463447758256 L -1.8195010986328124 1.4459463447758256 L -1.8415010986328124 1.5104463447758256 L -1.9315010986328125 1.5104463447758256 L -1.8020010986328125 1.1594463447758256 L -1.7035010986328125 1.1594463447758256 L -1.5740010986328126 1.5104463447758256 L -1.6650010986328125 1.5104463447758256 L -1.6870010986328126 1.4459463447758256 M -1.7090010986328126 1.3809463447758257 L -1.7530010986328124 1.2509463447758256 L -1.7975010986328126 1.3809463447758257 L -1.7090010986328126 1.3809463447758257 M -1.2870108642578124 1.1569463447758257 L -1.2870108642578124 1.2249463447758255 L -1.3830108642578125 1.2249463447758255 L -1.3830108642578125 1.5104463447758256 L -1.4690108642578126 1.5104463447758256 L -1.4690108642578126 1.2249463447758255 L -1.5640108642578125 1.2249463447758255 L -1.5640108642578125 1.1569463447758257 L -1.2870108642578124 1.1569463447758257 M -1.1655023193359375 1.1569463447758257 L -1.1655023193359375 1.5104463447758256 L -1.2510023193359374 1.5104463447758256 L -1.2510023193359374 1.1569463447758257 L -1.1655023193359375 1.1569463447758257 M -0.8477515869140625 1.1746963447758256 Q -0.8070015869140625 1.1979463447758256 -0.7835015869140625 1.2391963447758256 Q -0.7600015869140625 1.2804463447758256 -0.7600015869140625 1.3324463447758257 Q -0.7600015869140625 1.3844463447758257 -0.7837515869140625 1.4259463447758256 Q -0.8075015869140625 1.4674463447758257 -0.8482515869140625 1.4906963447758257 Q -0.8890015869140625 1.5139463447758257 -0.9385015869140625 1.5139463447758257 Q -0.9880015869140625 1.5139463447758257 -1.0287515869140624 1.4906963447758257 Q -1.0695015869140625 1.4674463447758257 -1.0932515869140624 1.4259463447758256 Q -1.1170015869140626 1.3844463447758257 -1.1170015869140626 1.3324463447758257 Q -1.1170015869140626 1.2804463447758256 -1.0932515869140624 1.2391963447758256 Q -1.0695015869140625 1.1979463447758256 -1.0287515869140624 1.1746963447758256 Q -0.9880015869140625 1.1514463447758256 -0.9385015869140625 1.1514463447758256 Q -0.8885015869140624 1.1514463447758256 -0.8477515869140625 1.1746963447758256 M -1.0052515869140626 1.2581963447758255 Q -1.0300015869140624 1.2854463447758255 -1.0300015869140624 1.3324463447758257 Q -1.0300015869140624 1.3789463447758257 -1.0052515869140626 1.4064463447758255 Q -0.9805015869140625 1.4339463447758256 -0.9385015869140625 1.4339463447758256 Q -0.8970015869140625 1.4339463447758256 -0.8720015869140625 1.4064463447758255 Q -0.8470015869140626 1.3789463447758257 -0.8470015869140626 1.3324463447758257 Q -0.8470015869140626 1.2859463447758257 -0.8717515869140625 1.2584463447758256 Q -0.8965015869140625 1.2309463447758255 -0.9385015869140625 1.2309463447758255 Q -0.9805015869140625 1.2309463447758255 -1.0052515869140626 1.2581963447758255 M -0.3980008544921875 1.5104463447758256 L -0.4835008544921875 1.5104463447758256 L -0.6265008544921875 1.2934463447758255 L -0.6265008544921875 1.5104463447758256 L -0.7120008544921875 1.5104463447758256 L -0.7120008544921875 1.1569463447758257 L -0.6265008544921875 1.1569463447758257 L -0.4835008544921875 1.3759463447758256 L -0.4835008544921875 1.1569463447758257 L -0.3980008544921875 1.1569463447758257 L -0.3980008544921875 1.5104463447758256 M -0.009008911132812436 1.5104463447758256 L -0.050008911132812445 1.4609463447758255 Q -0.05500891113281245 1.4689463447758255 -0.05850891113281245 1.4734463447758257 Q -0.06950891113281243 1.4919463447758257 -0.09075891113281245 1.5029463447758256 Q -0.11200891113281244 1.5139463447758257 -0.14000891113281244 1.5139463447758257 Q -0.17550891113281245 1.5139463447758257 -0.20125891113281244 1.4994463447758257 Q -0.22700891113281244 1.4849463447758255 -0.24050891113281245 1.4601963447758257 Q -0.25400891113281243 1.4354463447758257 -0.25400891113281243 1.4044463447758255 Q -0.25400891113281243 1.3609463447758257 -0.23100891113281244 1.3331963447758257 Q -0.20800891113281245 1.3054463447758256 -0.17200891113281244 1.3009463447758256 L -0.17800891113281245 1.2909463447758256 Q -0.18600891113281243 1.2784463447758256 -0.19000891113281243 1.2659463447758257 Q -0.19400891113281243 1.2534463447758255 -0.19400891113281243 1.2384463447758256 Q -0.19400891113281243 1.2159463447758256 -0.18200891113281242 1.1964463447758256 Q -0.17000891113281244 1.1769463447758257 -0.14675891113281245 1.1651963447758256 Q -0.12350891113281245 1.1534463447758256 -0.09100891113281245 1.1534463447758256 Q -0.04550891113281244 1.1534463447758256 -0.020508911132812446 1.1726963447758256 Q 0.004491088867187576 1.1919463447758256 0.013491088867187584 1.2229463447758255 Q 0.020491088867187535 1.2449463447758256 0.01899108886718759 1.2714463447758255 L -0.060508911132812426 1.2714463447758255 Q -0.060508911132812426 1.2629463447758256 -0.06150891113281243 1.2529463447758256 Q -0.06300891113281243 1.2244463447758256 -0.08950891113281245 1.2244463447758256 Q -0.10050891113281243 1.2244463447758256 -0.10725891113281244 1.2309463447758255 Q -0.11400891113281245 1.2374463447758255 -0.11400891113281245 1.2474463447758257 Q -0.11400891113281245 1.2559463447758257 -0.11025891113281244 1.2629463447758256 Q -0.10650891113281244 1.2699463447758257 -0.09800891113281243 1.2814463447758255 L 0.07699108886718758 1.5104463447758256 L -0.009008911132812436 1.5104463447758256 M -0.11025891113281244 1.4319463447758256 Q -0.09900891113281243 1.4209463447758257 -0.09900891113281243 1.4039463447758256 Q -0.09900891113281243 1.3864463447758255 -0.11150891113281244 1.3749463447758257 Q -0.12400891113281245 1.3634463447758256 -0.14150891113281244 1.3634463447758256 Q -0.15900891113281246 1.3634463447758256 -0.16975891113281244 1.3734463447758256 Q -0.18050891113281245 1.3834463447758256 -0.18050891113281245 1.4019463447758256 Q -0.18050891113281245 1.4204463447758255 -0.16875891113281244 1.4316963447758255 Q -0.15700891113281246 1.4429463447758257 -0.13900891113281244 1.4429463447758257 Q -0.12150891113281245 1.4429463447758257 -0.11025891113281244 1.4319463447758256 M 0.3807376708984376 1.1889463447758257 Q 0.4249876708984376 1.2244463447758256 0.43798767089843754 1.2849463447758256 L 0.3474876708984376 1.2849463447758256 Q 0.33748767089843756 1.2604463447758256 0.3167376708984376 1.2464463447758256 Q 0.2959876708984376 1.2324463447758256 0.26748767089843756 1.2324463447758256 Q 0.22998767089843755 1.2324463447758256 0.20698767089843756 1.2599463447758257 Q 0.18398767089843754 1.2874463447758255 0.18398767089843754 1.3334463447758256 Q 0.18398767089843754 1.3794463447758256 0.20698767089843756 1.4066963447758256 Q 0.22998767089843755 1.4339463447758256 0.26748767089843756 1.4339463447758256 Q 0.2959876708984376 1.4339463447758256 0.3167376708984376 1.4199463447758256 Q 0.33748767089843756 1.4059463447758256 0.3474876708984376 1.3819463447758256 L 0.43798767089843754 1.3819463447758256 Q 0.4249876708984376 1.4419463447758256 0.3807376708984376 1.4776963447758256 Q 0.33648767089843756 1.5134463447758255 0.26898767089843756 1.5134463447758255 Q 0.21748767089843757 1.5134463447758255 0.17848767089843756 1.4906963447758257 Q 0.13948767089843755 1.4679463447758256 0.11823767089843756 1.4269463447758257 Q 0.09698767089843756 1.3859463447758256 0.09698767089843756 1.3334463447758256 Q 0.09698767089843756 1.2809463447758256 0.11823767089843756 1.2399463447758257 Q 0.13948767089843755 1.1989463447758255 0.17848767089843756 1.1761963447758257 Q 0.21748767089843757 1.1534463447758256 0.26898767089843756 1.1534463447758256 Q 0.33648767089843756 1.1534463447758256 0.3807376708984376 1.1889463447758257 M 0.7447471923828126 1.1746963447758256 Q 0.7854971923828126 1.1979463447758256 0.8089971923828125 1.2391963447758256 Q 0.8324971923828126 1.2804463447758256 0.8324971923828126 1.3324463447758257 Q 0.8324971923828126 1.3844463447758257 0.8087471923828126 1.4259463447758256 Q 0.7849971923828125 1.4674463447758257 0.7442471923828126 1.4906963447758257 Q 0.7034971923828126 1.5139463447758257 0.6539971923828125 1.5139463447758257 Q 0.6044971923828125 1.5139463447758257 0.5637471923828126 1.4906963447758257 Q 0.5229971923828125 1.4674463447758257 0.49924719238281257 1.4259463447758256 Q 0.4754971923828126 1.3844463447758257 0.4754971923828126 1.3324463447758257 Q 0.4754971923828126 1.2804463447758256 0.49924719238281257 1.2391963447758256 Q 0.5229971923828125 1.1979463447758256 0.5637471923828126 1.1746963447758256 Q 0.6044971923828125 1.1514463447758256 0.6539971923828125 1.1514463447758256 Q 0.7039971923828126 1.1514463447758256 0.7447471923828126 1.1746963447758256 M 0.5872471923828125 1.2581963447758255 Q 0.5624971923828126 1.2854463447758255 0.5624971923828126 1.3324463447758257 Q 0.5624971923828126 1.3789463447758257 0.5872471923828125 1.4064463447758255 Q 0.6119971923828126 1.4339463447758256 0.6539971923828125 1.4339463447758256 Q 0.6954971923828126 1.4339463447758256 0.7204971923828125 1.4064463447758255 Q 0.7454971923828125 1.3789463447758257 0.7454971923828125 1.3324463447758257 Q 0.7454971923828125 1.2859463447758257 0.7207471923828126 1.2584463447758256 Q 0.6959971923828125 1.2309463447758255 0.6539971923828125 1.2309463447758255 Q 0.6119971923828126 1.2309463447758255 0.5872471923828125 1.2581963447758255 M 1.1944979248046876 1.5104463447758256 L 1.1089979248046875 1.5104463447758256 L 0.9659979248046875 1.2934463447758255 L 0.9659979248046875 1.5104463447758256 L 0.8804979248046875 1.5104463447758256 L 0.8804979248046875 1.1569463447758257 L 0.9659979248046875 1.1569463447758257 L 1.1089979248046875 1.3759463447758256 L 1.1089979248046875 1.1569463447758257 L 1.1944979248046876 1.1569463447758257 L 1.1944979248046876 1.5104463447758256 M 1.5267337646484376 1.1889463447758257 Q 1.5709837646484375 1.2244463447758256 1.5839837646484374 1.2849463447758256 L 1.4934837646484376 1.2849463447758256 Q 1.4834837646484376 1.2604463447758256 1.4627337646484375 1.2464463447758256 Q 1.4419837646484375 1.2324463447758256 1.4134837646484375 1.2324463447758256 Q 1.3759837646484374 1.2324463447758256 1.3529837646484375 1.2599463447758257 Q 1.3299837646484376 1.2874463447758255 1.3299837646484376 1.3334463447758256 Q 1.3299837646484376 1.3794463447758256 1.3529837646484375 1.4066963447758256 Q 1.3759837646484374 1.4339463447758256 1.4134837646484375 1.4339463447758256 Q 1.4419837646484375 1.4339463447758256 1.4627337646484375 1.4199463447758256 Q 1.4834837646484376 1.4059463447758256 1.4934837646484376 1.3819463447758256 L 1.5839837646484374 1.3819463447758256 Q 1.5709837646484375 1.4419463447758256 1.5267337646484376 1.4776963447758256 Q 1.4824837646484375 1.5134463447758255 1.4149837646484376 1.5134463447758255 Q 1.3634837646484375 1.5134463447758255 1.3244837646484375 1.4906963447758257 Q 1.2854837646484376 1.4679463447758256 1.2642337646484374 1.4269463447758257 Q 1.2429837646484374 1.3859463447758256 1.2429837646484374 1.3334463447758256 Q 1.2429837646484374 1.2809463447758256 1.2642337646484374 1.2399463447758257 Q 1.2854837646484376 1.1989463447758255 1.3244837646484375 1.1761963447758257 Q 1.3634837646484375 1.1534463447758256 1.4149837646484376 1.1534463447758256 Q 1.4824837646484375 1.1534463447758256 1.5267337646484376 1.1889463447758257 M 1.7174932861328125 1.1569463447758257 L 1.7174932861328125 1.5104463447758256 L 1.6319932861328126 1.5104463447758256 L 1.6319932861328126 1.1569463447758257 L 1.7174932861328125 1.1569463447758257 M 1.8619940185546875 1.4449463447758255 L 1.9759940185546876 1.4449463447758255 L 1.9759940185546876 1.5104463447758256 L 1.7764940185546876 1.5104463447758256 L 1.7764940185546876 1.1569463447758257 L 1.8619940185546875 1.1569463447758257 L 1.8619940185546875 1.4449463447758255 M 2.1010076904296877 1.1569463447758257 L 2.1010076904296877 1.5104463447758256 L 2.0155076904296876 1.5104463447758256 L 2.0155076904296876 1.1569463447758257 L 2.1010076904296877 1.1569463447758257 M 2.3790084228515624 1.4459463447758256 L 2.2465084228515626 1.4459463447758256 L 2.2245084228515624 1.5104463447758256 L 2.1345084228515625 1.5104463447758256 L 2.2640084228515627 1.1594463447758256 L 2.3625084228515627 1.1594463447758256 L 2.4920084228515624 1.5104463447758256 L 2.4010084228515627 1.5104463447758256 L 2.3790084228515624 1.4459463447758256 M 2.3570084228515626 1.3809463447758257 L 2.3130084228515626 1.2509463447758256 L 2.2685084228515624 1.3809463447758257 L 2.3570084228515626 1.3809463447758257 M 2.7789986572265626 1.1569463447758257 L 2.7789986572265626 1.2249463447758255 L 2.6829986572265625 1.2249463447758255 L 2.6829986572265625 1.5104463447758256 L 2.5969986572265626 1.5104463447758256 L 2.5969986572265626 1.2249463447758255 L 2.5019986572265625 1.2249463447758255 L 2.5019986572265625 1.1569463447758257 L 2.7789986572265626 1.1569463447758257 M 2.9005072021484377 1.1569463447758257 L 2.9005072021484377 1.5104463447758256 L 2.8150072021484376 1.5104463447758256 L 2.8150072021484376 1.1569463447758257 L 2.9005072021484377 1.1569463447758257 M 3.2182579345703126 1.1746963447758256 Q 3.2590079345703127 1.1979463447758256 3.2825079345703125 1.2391963447758256 Q 3.3060079345703124 1.2804463447758256 3.3060079345703124 1.3324463447758257 Q 3.3060079345703124 1.3844463447758257 3.2822579345703127 1.4259463447758256 Q 3.2585079345703125 1.4674463447758257 3.2177579345703125 1.4906963447758257 Q 3.1770079345703124 1.5139463447758257 3.1275079345703123 1.5139463447758257 Q 3.0780079345703126 1.5139463447758257 3.0372579345703126 1.4906963447758257 Q 2.9965079345703125 1.4674463447758257 2.9727579345703123 1.4259463447758256 Q 2.9490079345703126 1.3844463447758257 2.9490079345703126 1.3324463447758257 Q 2.9490079345703126 1.2804463447758256 2.9727579345703123 1.2391963447758256 Q 2.9965079345703125 1.1979463447758256 3.0372579345703126 1.1746963447758256 Q 3.0780079345703126 1.1514463447758256 3.1275079345703123 1.1514463447758256 Q 3.1775079345703126 1.1514463447758256 3.2182579345703126 1.1746963447758256 M 3.0607579345703124 1.2581963447758255 Q 3.0360079345703124 1.2854463447758255 3.0360079345703124 1.3324463447758257 Q 3.0360079345703124 1.3789463447758257 3.0607579345703124 1.4064463447758255 Q 3.0855079345703125 1.4339463447758256 3.1275079345703123 1.4339463447758256 Q 3.1690079345703124 1.4339463447758256 3.1940079345703127 1.4064463447758255 Q 3.2190079345703126 1.3789463447758257 3.2190079345703126 1.3324463447758257 Q 3.2190079345703126 1.2859463447758257 3.1942579345703126 1.2584463447758256 Q 3.1695079345703125 1.2309463447758255 3.1275079345703123 1.2309463447758255 Q 3.0855079345703125 1.2309463447758255 3.0607579345703124 1.2581963447758255 M 3.6680086669921876 1.5104463447758256 L 3.5825086669921875 1.5104463447758256 L 3.4395086669921877 1.2934463447758255 L 3.4395086669921877 1.5104463447758256 L 3.3540086669921876 1.5104463447758256 L 3.3540086669921876 1.1569463447758257 L 3.4395086669921877 1.1569463447758257 L 3.5825086669921875 1.3759463447758256 L 3.5825086669921875 1.1569463447758257 L 3.6680086669921876 1.1569463447758257 L 3.6680086669921876 1.5104463447758256" fill="#a5497e" fill-rule="nonzero"></path></g><g transform="matrix(1,0,0,1,0,0)"><g clip-path="url(#SvgjsClipPath1010)"><g clip-path="url(#SvgjsClipPath10015ed66e8f-ab70-4a4e-9b97-04bcfeb64232)"><path d=" M -0.7188493401963892 -3.9284156272191124 L -1.717671793821136 -2.9295124198841176 L -1.717671793821136 -1.5169685202334602 L -0.7188493401963892 -0.5181460666087134 L 0.6936945594542683 -0.5181460666087134 L 1.692517013079015 -1.5169685202334602 L 1.692517013079015 -2.9295124198841176 L 0.6936945594542683 -3.9284156272191124 Z M 0.7256528402847484 -4.005575797360675 L -0.7508076210268687 -4.005575797360675 L -1.7947512102524508 -2.9613899470043497 L -1.7947512102524508 -1.4850102394029805 L -0.7508076210268687 -0.4409858964671516 L 0.7256528402847484 -0.4409858964671516 L 1.7696771832205778 -1.4850102394029805 L 1.7696771832205778 -2.9613899470043497 Z" fill="#a5497e" transform="matrix(1,0,0,1,0,0)" fill-rule="evenodd"></path></g><g clip-path="url(#SvgjsClipPath10015ed66e8f-ab70-4a4e-9b97-04bcfeb64232)"><path d=" M -0.6450404490301016 -3.733213721123151 L -1.5393877900220427 -2.83886638013121 L -1.5393877900220427 -1.5739604512406888 L -0.6450404490301016 -0.6796131102487473 L 0.6197847261501714 -0.6796131102487473 L 1.5141320671421126 -1.5739604512406888 L 1.5141320671421126 -2.8387856264209623 L 0.6197847261501714 -3.7331329674129035 Z M 0.651823760690899 -3.8103738912647134 L -0.6769987298605814 -3.8103738912647134 L -1.6166085254462907 -2.870743907251442 L -1.6166085254462907 -1.5419214166999622 L -0.6769987298605811 -0.6022914326866902 L 0.651823760690899 -0.6022914326866902 L 1.5914537447041706 -1.5419214166999622 L 1.5914537447041706 -2.870743907251442 Z" fill="#a5497e" transform="matrix(1,0,0,1,0,0)" fill-rule="evenodd"></path></g><g clip-path="url(#SvgjsClipPath10015ed66e8f-ab70-4a4e-9b97-04bcfeb64232)"><path d=" M 1.3378063408165233 -3.5567264873770665 L -1.3629409331310822 -3.5567264873770665 L -1.3629409331310822 -0.8559792134294613 L 1.3378063408165233 -0.8559792134294613 Z M -1.440121291700206 -3.6338866575186284 L -1.440121291700206 -0.7787988548603373 L 1.4149665109580851 -0.7787988548603373 L 1.4149665109580851 -3.6338866575186284 Z" fill="#a5497e" transform="matrix(1,0,0,1,0,0)" fill-rule="evenodd"></path></g><g clip-path="url(#SvgjsClipPath10015ed66e8f-ab70-4a4e-9b97-04bcfeb64232)"><path d=" M 1.9098252473552517 -2.206342756189483 L 0 -4.116067061406925 L -1.9097243052174417 -2.206342756189483 L 0 -0.29651750883423134 Z M 0 -4.225185512378967 L -2.0188427561894833 -2.206342756189483 L 0 -0.18749999999999956 L 2.0188427561894837 -2.206342756189483 Z" fill="#a5497e" transform="matrix(1,0,0,1,0,0)" fill-rule="evenodd"></path></g><path d=" M -0.5879492070165123 -2.589310062255627 C -0.5407720751098134 -2.589310062255627 -0.5022672100977282 -2.5827191394157207 -0.4724346119802568 -2.569537293735908 C -0.4426020138627854 -2.556355448056095 -0.4158914318273751 -2.5403984769700054 -0.39230286587402563 -2.52166638047764 C -0.3839774896551964 -2.5154223483135176 -0.3770396761395054 -2.5123003322314568 -0.3714894253269526 -2.5123003322314568 C -0.35830757964713955 -2.5123003322314568 -0.3496353127525258 -2.53311377277853 -0.34547262464311124 -2.5747406538726763 L -0.32153716801397725 -2.5747406538726763 C -0.32292473071711547 -2.547683181161481 -0.32396540274446917 -2.514902012299841 -0.3246591840960381 -2.4763971472877557 C -0.3253529654476073 -2.4378922822756706 -0.3256998561233918 -2.3867259075974494 -0.3256998561233918 -2.3228980232530922 L -0.3496353127525258 -2.3228980232530922 C -0.35449178221350963 -2.3645249043472383 -0.3619499317428775 -2.400774979966724 -0.37200976134062935 -2.431648250111549 C -0.38206959093838133 -2.4625215202563737 -0.40062824209285486 -2.4890586569538917 -0.4276857148040498 -2.5112596602041033 C -0.4443364672417083 -2.5272166312901927 -0.46497646245088897 -2.539704695618436 -0.48960570043159213 -2.5487238531888345 C -0.5142349384122953 -2.557743010759233 -0.5390376217308905 -2.562252589544432 -0.5640137503873783 -2.562252589544432 C -0.6021717247236789 -2.562252589544432 -0.6347794482474267 -2.5523662052845726 -0.6618369209586217 -2.532593436764853 C -0.6888943936698166 -2.5128206682451335 -0.7110953969200279 -2.485936640871831 -0.7284399307092555 -2.451941354644945 C -0.745784464498483 -2.417946068418059 -0.7586194195025113 -2.379614648743866 -0.7669447957213406 -2.3369470956223664 C -0.7752701719401698 -2.2942795425008664 -0.7794328600495843 -2.2500509813383363 -0.7794328600495843 -2.204261412134776 C -0.7794328600495843 -2.0793807688523374 -0.7622617715982491 -1.9881485211210004 -0.7279195946955785 -1.930564668940765 C -0.693577417792908 -1.8729808167605295 -0.6441454964936095 -1.8441888906704118 -0.5796238307976831 -1.8441888906704118 C -0.5629730783600246 -1.8441888906704118 -0.5484036699770736 -1.8462702347251192 -0.5359156056488297 -1.8504329228345338 C -0.5234275413205859 -1.8545956109439483 -0.5133677117228339 -1.859452080404932 -0.5057361168555737 -1.8650023312174848 C -0.4960231779336063 -1.8719401447331758 -0.4894322550936999 -1.8793982942625438 -0.4859633483358543 -1.8873767798055885 C -0.4824944415780088 -1.8953552653486332 -0.48075998819908616 -1.905935430960062 -0.48075998819908616 -1.919117276639875 L -0.48075998819908616 -2.0211031353205327 C -0.48075998819908616 -2.0530170774927115 -0.4833616682674703 -2.0767790887839532 -0.48856502840423854 -2.092389169194258 C -0.4937683885410068 -2.1079992496045628 -0.504001663476651 -2.118579415215992 -0.5192648532111712 -2.1241296660285442 C -0.5345280429456916 -2.129679916841097 -0.5567290461959027 -2.132801932923158 -0.585867862961805 -2.1334957142747273 L -0.585867862961805 -2.1543091548218003 C -0.571298454578854 -2.153615373470231 -0.5537804754517341 -2.1530950374565543 -0.5333139255804455 -2.1527481467807696 C -0.512847375709157 -2.1524012561049854 -0.4915135991484072 -2.152054365429201 -0.46931259589819585 -2.151707474753416 C -0.4471115926479846 -2.1513605840776315 -0.4266450427766961 -2.151187138739739 -0.4079129462843304 -2.151187138739739 C -0.37877412951842804 -2.151187138739739 -0.3520635474830177 -2.151534029415524 -0.3277812001780991 -2.1522278107670934 C -0.3034988528731807 -2.152921592118662 -0.28372608435346114 -2.153615373470231 -0.2684628946189409 -2.1543091548218003 L -0.2684628946189409 -2.1334957142747273 C -0.28164474029875386 -2.132801932923158 -0.29153112455861363 -2.130373698192666 -0.2981220473985201 -2.1262110100832516 C -0.3047129702384266 -2.1220483219738373 -0.30922254902362567 -2.1137229457550077 -0.3116507837541175 -2.1012348814267643 C -0.3140790184846094 -2.08874681709852 -0.3152931358498553 -2.0696678299303697 -0.3152931358498553 -2.0439979199223135 L -0.3152931358498553 -1.8379448585062899 L -0.3361065763969284 -1.8379448585062899 C -0.3368003577484975 -1.8497391414829647 -0.3394020378168816 -1.8625740964869932 -0.3439116166020808 -1.876449723518375 C -0.3484211953872799 -1.8903253505497573 -0.35587934491664774 -1.8972631640654483 -0.36628606519018436 -1.8972631640654483 C -0.371142534651168 -1.8972631640654483 -0.37756001215318213 -1.8960490467002022 -0.38553849769622694 -1.8936208119697104 C -0.39351698323927153 -1.8911925772392184 -0.405831602229623 -1.8851219904129888 -0.42248235466728157 -1.8754090514910216 C -0.4481522646753383 -1.8608396431080703 -0.47520973738653327 -1.8485250241177187 -0.5036547728008665 -1.8384651945199668 C -0.5320998082151996 -1.8284053649222147 -0.561932406332671 -1.8233754501233388 -0.5931525671532806 -1.8233754501233388 C -0.6736312039352963 -1.8233754501233388 -0.7416217763890683 -1.8382917491820745 -0.7971242845145965 -1.868124347299546 C -0.8526267926401246 -1.8979569454170173 -0.894427119072163 -1.9407979438764094 -0.9225252638107116 -1.996647342677722 C -0.9506234085492603 -2.0524967414790347 -0.9646724809185345 -2.1196200872433453 -0.9646724809185345 -2.1980173799706537 C -0.9646724809185345 -2.2771084540495314 -0.9485420644945529 -2.345792807854872 -0.9162812316465897 -2.404070441386677 C -0.8840203987986265 -2.4623480749184816 -0.839618392298204 -2.507790753446258 -0.7830752121453222 -2.5403984769700054 C -0.7265320319924404 -2.5730062004937535 -0.661490030282837 -2.589310062255627 -0.5879492070165123 -2.589310062255627 M 0.34759970135527074 -2.5747406538726763 C 0.3448245759489945 -2.5435204930520667 0.34291667723217967 -2.5133410042588107 0.34187600520482575 -2.484202187492908 C 0.34083533317747206 -2.455063370727006 0.3403149971637953 -2.43251547680101 0.3403149971637953 -2.416558505714921 C 0.3403149971637953 -2.4012953159804002 0.34066188783957974 -2.3867259075974494 0.3413556691911488 -2.3728502805660674 C 0.34204945054271785 -2.3589746535346854 0.34274323189428735 -2.3471803705580108 0.3434370132458564 -2.337467431636043 L 0.3195015566167223 -2.337467431636043 C 0.31048239904632413 -2.391582377058433 0.29799433471808023 -2.4340764848420404 0.28203736363199083 -2.4649497549868657 C 0.2660803925459012 -2.4958230251316906 0.2464810693640742 -2.5178505830440097 0.2232393940865094 -2.5310324287238224 C 0.19999771880894457 -2.5442142744036356 0.17241991008407265 -2.550805197243542 0.14050596791189407 -2.550805197243542 L 0.10616379100922346 -2.550805197243542 C 0.0860441318137195 -2.550805197243542 0.07078094207919916 -2.549070743864619 0.06037422180566265 -2.5456018371067737 C 0.049967501532126146 -2.542132930348928 0.04302968801643536 -2.535195116833237 0.03956078125858964 -2.5247883965597007 C 0.03609187450074414 -2.514381676286164 0.034357421121821385 -2.4984247052000748 0.034357421121821385 -2.476917483301433 L 0.034357421121821385 -1.954500125569899 C 0.034357421121821385 -1.927442652858704 0.03713254652809783 -1.9073229936632001 0.042682797340650724 -1.8941411479833872 C 0.048233048153203395 -1.8809593023035742 0.05898665910252454 -1.8722870354089605 0.07494363018861394 -1.868124347299546 C 0.09090060127470312 -1.8639616591901313 0.11448916722805258 -1.8615334244596393 0.14570932804866232 -1.8608396431080703 L 0.14570932804866232 -1.8379448585062899 C 0.12420210615002003 -1.8386386398578591 0.09645085208725601 -1.8393324212094282 0.062455565860370044 -1.8400262025609972 C 0.028460279633484076 -1.8407199839125663 -0.007269459972324643 -1.841066874588351 -0.044733652957056225 -1.841066874588351 C -0.07456625107452763 -1.841066874588351 -0.10370506784042988 -1.8407199839125663 -0.13215010325476295 -1.8400262025609972 C -0.16059513866909625 -1.8393324212094282 -0.1862650486771531 -1.8386386398578591 -0.20915983327893328 -1.8379448585062899 L -0.20915983327893328 -1.858758299053363 C -0.18695883002872205 -1.8601458617565012 -0.1703080775910636 -1.8629209871627777 -0.15920757596595803 -1.8670836752721922 C -0.14810707434085246 -1.8712463633816068 -0.1406489248114846 -1.879571739600436 -0.13683312737785447 -1.8920598039286798 C -0.13301732994422444 -1.9045478682569237 -0.13110943122740937 -1.9232799647492895 -0.13110943122740937 -1.948256093405777 L -0.13110943122740937 -2.4644294189731886 C -0.13110943122740937 -2.4900993289812456 -0.13301732994422444 -2.509004870811504 -0.13683312737785447 -2.521146044463963 C -0.1406489248114846 -2.5332872181164223 -0.14828051967874478 -2.5416125943352514 -0.15972791197963487 -2.5461221731204504 C -0.17117530428052485 -2.55063175190565 -0.1876526113802912 -2.553233431974034 -0.20915983327893328 -2.553927213325603 L -0.20915983327893328 -2.5747406538726763 C -0.1807147978646001 -2.574046872521107 -0.15053530907134427 -2.57352653650743 -0.11862136689916558 -2.5731796458316456 C -0.08670742472698678 -2.572832755155861 -0.05514037323059273 -2.5724858644800763 -0.0239202124099831 -2.572138973804292 C 0.007299948410626422 -2.5717920831285075 0.036438765176528554 -2.571618637790615 0.06349623788772374 -2.571618637790615 C 0.0905537105989187 -2.571618637790615 0.11275471384912983 -2.571618637790615 0.13009924763835734 -2.571618637790615 C 0.16201318981053614 -2.571618637790615 0.19826326543002182 -2.5717920831285075 0.23884947449681415 -2.572138973804292 C 0.2794356835636065 -2.5724858644800763 0.31568575918309216 -2.5733530911695377 0.34759970135527074 -2.5747406538726763 M 0.1925395692795766 -2.2146681324083124 C 0.1925395692795766 -2.2146681324083124 0.1925395692795766 -2.211199225650467 0.1925395692795766 -2.204261412134776 C 0.1925395692795766 -2.197323598619085 0.1925395692795766 -2.1938546918612394 0.1925395692795766 -2.1938546918612394 L 0.003137260301211864 -2.1938546918612394 C 0.003137260301211864 -2.1938546918612394 0.003137260301211864 -2.197323598619085 0.003137260301211864 -2.204261412134776 C 0.003137260301211864 -2.211199225650467 0.003137260301211864 -2.2146681324083124 0.003137260301211864 -2.2146681324083124 L 0.1925395692795766 -2.2146681324083124 M 0.21855636996341787 -2.3520368400189944 C 0.21578124455714165 -2.3124913029795557 0.21456712719189563 -2.2823118141862997 0.21491401786768027 -2.2614983736392267 C 0.2152609085434647 -2.2406849330921537 0.215434353881357 -2.2216059459240034 0.215434353881357 -2.204261412134776 C 0.215434353881357 -2.1869168783455484 0.21578124455714165 -2.167837891177398 0.2164750259087107 -2.1470244506303247 C 0.21716880726027976 -2.1262110100832516 0.2189032606392025 -2.096031521289996 0.22167838604547896 -2.056485984250557 L 0.19774292941634486 -2.056485984250557 C 0.1935802413069303 -2.0807683315554755 0.18698931846702393 -2.1033162254814712 0.17797016089662554 -2.1241296660285442 C 0.16895100332622714 -2.1449431065756173 0.1557691576464142 -2.1617673043511685 0.13842462385718668 -2.1746022593551966 C 0.12108009006795917 -2.1874372143592247 0.0985321961419634 -2.1938546918612394 0.07078094207919938 -2.1938546918612394 L 0.07078094207919938 -2.2146681324083124 C 0.0915943826262724 -2.2146681324083124 0.10911236175339223 -2.219004265855619 0.12333487946055866 -2.227676532750233 C 0.1375573971677253 -2.236348799644847 0.14952512548229224 -2.2477961919457368 0.15923806440425992 -2.2620187096529034 C 0.16895100332622714 -2.27624122736007 0.1765825981934872 -2.2913309717566976 0.18213284900603988 -2.3072879428427875 C 0.18768309981859277 -2.3232449139288764 0.19184578792800755 -2.3381612129876124 0.19462091333428377 -2.3520368400189944 L 0.21855636996341787 -2.3520368400189944 M 0.6982685721662132 -2.576821997927383 L 0.9511518748131509 -1.925361308803997 C 0.9608648137351183 -1.9003851801475091 0.9717918700223318 -1.8832140916961737 0.9839330436747911 -1.873848043449991 C 0.9960742173272503 -1.864481995203808 1.0070012736144636 -1.8594520804049322 1.0167142125364308 -1.858758299053363 L 1.0167142125364308 -1.8379448585062899 C 0.9959007719893582 -1.8393324212094282 0.9714449793465472 -1.8401996478988896 0.9433468346079987 -1.840546538574674 C 0.9152486898694498 -1.8408934292504586 0.8869770997930093 -1.841066874588351 0.858532064378676 -1.841066874588351 C 0.8266181222064972 -1.841066874588351 0.7964386334132412 -1.8408934292504586 0.7679935979989081 -1.840546538574674 C 0.7395485625845748 -1.8401996478988896 0.717000668658579 -1.8393324212094282 0.7003499162209206 -1.8379448585062899 L 0.7003499162209206 -1.858758299053363 C 0.7357327651509449 -1.8601458617565012 0.7581072137390485 -1.8662164485827306 0.7674732619852311 -1.8769700595320518 C 0.776839310231414 -1.887723670481373 0.7745845208388147 -1.9107919004210456 0.7607088938074325 -1.9461747493510697 L 0.5837946491573114 -2.430087242070518 L 0.6025267456496772 -2.4571447147817134 L 0.44434459749192223 -2.045038591949667 C 0.4290814077574019 -2.0068806176133664 0.4198888048491114 -1.9756604567927567 0.4167667887670503 -1.9513781094878382 C 0.41364477268498945 -1.9270957621829194 0.415379226063912 -1.9083636656905538 0.42197014890381856 -1.8951818200107409 C 0.42856107174372515 -1.881999974330928 0.4393146826930461 -1.8728073714226372 0.4542309817517818 -1.867604011285869 C 0.4691472808105175 -1.862400651149101 0.48701215061342196 -1.8594520804049322 0.5078255911604947 -1.858758299053363 L 0.5078255911604947 -1.8379448585062899 C 0.48493080655871457 -1.8393324212094282 0.46307669398428786 -1.8401996478988896 0.44226325343721484 -1.840546538574674 C 0.4214498128901416 -1.8408934292504586 0.4002894816672842 -1.841066874588351 0.3787822597686421 -1.841066874588351 C 0.36351907003412176 -1.841066874588351 0.349123106989063 -1.8408934292504586 0.3355943706334654 -1.840546538574674 C 0.32206563427786783 -1.8401996478988896 0.3100979059633009 -1.8393324212094282 0.2996911856897644 -1.8379448585062899 L 0.2996911856897644 -1.858758299053363 C 0.31426059407271567 -1.8615334244596393 0.32917689313145115 -1.8708994727058224 0.3444400828659715 -1.8868564437919115 C 0.3597032726004916 -1.902813414878001 0.3746195716592273 -1.929870887589196 0.3891889800421784 -1.9680288619254964 L 0.6264622022788113 -2.576821997927383 C 0.6375627039039169 -2.5761282165758144 0.649530432218484 -2.5757813259000297 0.6623653872225121 -2.5757813259000297 C 0.6752003422265407 -2.5757813259000297 0.6871680705411076 -2.5761282165758144 0.6982685721662132 -2.576821997927383 M 0.7711156140809692 -2.137658402384142 L 0.7711156140809692 -2.116844961837069 L 0.4609953499295807 -2.116844961837069 L 0.471402070203117 -2.137658402384142 L 0.7711156140809692 -2.137658402384142" fill="#a5497e" transform="matrix(1,0,0,1,0,0)" fill-rule="nonzero"></path></g></g></g><defs><clipPath id="SvgjsClipPath1010"><path d=" M -2.0188427561894833 -4.225185512378967 h 4.037685512378967 v 4.037685512378967 h -4.037685512378967 Z"></path></clipPath><clipPath id="SvgjsClipPath10015ed66e8f-ab70-4a4e-9b97-04bcfeb64232"><path d=" M -2.0188427561894833 -4.225185512378967 L 2.0188427561894837 -4.225185512378967 L 2.0188427561894837 -0.18749999999999956 L -2.0188427561894833 -0.18749999999999956 Z"></path></clipPath></defs></svg>